<?xml version="1.0" encoding="UTF-8" standalone="no"?>
<!-- Created with Inkscape (http://www.inkscape.org/) -->

<svg
   version="1.1"
   id="svg554"
   width="500"
   height="500"
   viewBox="0 0 500 500"
   sodipodi:docname="logo.svg"
   inkscape:version="1.1.1 (c3084ef, 2021-09-22)"
   inkscape:export-filename="/Users/arthurdocquois/Desktop/logo.png"
   inkscape:export-xdpi="96"
   inkscape:export-ydpi="96"
   xmlns:inkscape="http://www.inkscape.org/namespaces/inkscape"
   xmlns:sodipodi="http://sodipodi.sourceforge.net/DTD/sodipodi-0.dtd"
   xmlns="http://www.w3.org/2000/svg"
   xmlns:svg="http://www.w3.org/2000/svg">
  <defs
     id="defs558" />
  <sodipodi:namedview
     id="namedview556"
     pagecolor="#ffffff"
     bordercolor="#999999"
     borderopacity="1"
     inkscape:pageshadow="0"
     inkscape:pageopacity="0"
     inkscape:pagecheckerboard="0"
     showgrid="false"
     inkscape:zoom="1.2098794"
     inkscape:cx="195.06076"
     inkscape:cy="200.84646"
     inkscape:window-width="1310"
     inkscape:window-height="786"
     inkscape:window-x="275"
     inkscape:window-y="25"
     inkscape:window-maximized="0"
     inkscape:current-layer="g560" />
  <g
     inkscape:groupmode="layer"
     inkscape:label="Image"
     id="g560">
    <path
       style="fill:none;stroke:#FCB820;stroke-width:1px;stroke-linecap:butt;stroke-linejoin:miter;stroke-opacity:1"
       d="m 219.08455,224.37645 23.9074,17.01235 12.82521,21.06999 -0.21851,30.18314 -0.0105,-29.7251 13.51228,-21.98608 23.12908,-17.08349 -23.12908,17.08349 h -26.56651 z"
       id="path7856"
       sodipodi:nodetypes="cccccccccc" />
    <path
       style="fill:none;stroke:#7CC2E6;stroke-width:3;stroke-linecap:butt;stroke-linejoin:round;stroke-opacity:1;stroke-miterlimit:4;stroke-dasharray:none;paint-order:fill markers stroke"
       d="m 200.16337,191.96177 c 113.04908,0 113.24582,-0.0918 113.24582,-0.0918 l -0.3241,114.08484 H 199.64846 Z"
       id="path7054" />
    <path
       style="fill:none;stroke:#7CC2E6;stroke-width:1px;stroke-linecap:butt;stroke-linejoin:miter;stroke-opacity:1"
       d="m 219.08455,224.37645 73.14496,-0.52919 -36.63086,68.79467 z"
       id="path7459"
       sodipodi:nodetypes="cccc" />
    <path
       style="opacity:1;fill:none;stroke:#7CC2E6;stroke-width:3;stroke-linecap:round;stroke-linejoin:round;stroke-miterlimit:4;stroke-dasharray:none;stroke-opacity:1;paint-order:fill markers stroke"
       id="path8598"
       sodipodi:type="arc"
       sodipodi:cx="256.16071"
       sodipodi:cy="247.80141"
       sodipodi:rx="43.399597"
       sodipodi:ry="44.201172"
       sodipodi:start="3.2318087"
       sodipodi:end="3.2274196"
       sodipodi:arc-type="arc"
       d="m 212.9376,243.81916 a 43.399597,44.201172 0 0 1 47.08571,-40.04351 43.399597,44.201172 0 0 1 39.36898,47.91139 43.399597,44.201172 0 0 1 -46.99931,40.14866 43.399597,44.201172 0 0 1 -39.47212,-47.82329"
       sodipodi:open="true" />
    <rect
       style="opacity:1;fill:none;stroke:#7CC2E6;stroke-width:3;stroke-linecap:round;stroke-linejoin:round;stroke-miterlimit:4;stroke-dasharray:none;stroke-opacity:1;paint-order:fill markers stroke"
       id="rect9472"
       width="0.91608649"
       height="15.802492"
       x="235.20522"
       y="192.60719" />
    <rect
       style="opacity:1;fill:none;stroke:#7CC2E6;stroke-width:3;stroke-linecap:round;stroke-linejoin:round;stroke-miterlimit:4;stroke-dasharray:none;stroke-opacity:1;paint-order:fill markers stroke"
       id="rect9474"
       width="1.1451081"
       height="10.076952"
       x="254.44302"
       y="192.83621" />
    <rect
       style="opacity:1;fill:none;stroke:#7CC2E6;stroke-width:3;stroke-linecap:round;stroke-linejoin:round;stroke-miterlimit:4;stroke-dasharray:none;stroke-opacity:1;paint-order:fill markers stroke"
       id="rect9476"
       width="1.1451081"
       height="14.657384"
       x="273.68085"
       y="192.14915" />
    <rect
       style="opacity:1;fill:none;stroke:#7CC2E6;stroke-width:3;stroke-linecap:round;stroke-linejoin:round;stroke-miterlimit:4;stroke-dasharray:none;stroke-opacity:1;paint-order:fill markers stroke"
       id="rect9478"
       width="13.512276"
       height="0.68706489"
       x="299.78931"
       y="250.77869" />
    <rect
       style="opacity:1;fill:none;stroke:#7CC2E6;stroke-width:3;stroke-linecap:round;stroke-linejoin:round;stroke-miterlimit:4;stroke-dasharray:none;stroke-opacity:1;paint-order:fill markers stroke"
       id="rect9504"
       width="17.176622"
       height="1.832173"
       x="295.89594"
       y="226.96043" />
    <rect
       style="opacity:1;fill:none;stroke:#7CC2E6;stroke-width:3;stroke-linecap:round;stroke-linejoin:round;stroke-miterlimit:4;stroke-dasharray:none;stroke-opacity:1;paint-order:fill markers stroke"
       id="rect9506"
       width="17.176622"
       height="1.3741298"
       x="295.4379"
       y="267.03922" />
    <rect
       style="opacity:1;fill:none;stroke:#7CC2E6;stroke-width:2.94907;stroke-linecap:round;stroke-linejoin:round;stroke-miterlimit:4;stroke-dasharray:none;stroke-opacity:1;paint-order:fill markers stroke"
       id="rect9508"
       width="2.0611947"
       height="17.262314"
       x="273.90988"
       y="288.48157" />
    <rect
       style="opacity:1;fill:none;stroke:#7CC2E6;stroke-width:2.97054;stroke-linecap:round;stroke-linejoin:round;stroke-miterlimit:4;stroke-dasharray:none;stroke-opacity:1;paint-order:fill markers stroke"
       id="rect9534"
       width="1.3741298"
       height="18.188148"
       x="235.66325"
       y="287.55573" />
    <rect
       style="opacity:1;fill:none;stroke:#7CC2E6;stroke-width:3;stroke-linecap:round;stroke-linejoin:round;stroke-miterlimit:4;stroke-dasharray:none;stroke-opacity:1;paint-order:fill markers stroke"
       id="rect9536"
       width="17.176617"
       height="1.6031494"
       x="200.1649"
       y="268.41336" />
    <rect
       style="opacity:1;fill:none;stroke:#7CC2E6;stroke-width:3;stroke-linecap:round;stroke-linejoin:round;stroke-miterlimit:4;stroke-dasharray:none;stroke-opacity:1;paint-order:fill markers stroke"
       id="rect9538"
       width="15.115436"
       height="0.45803833"
       x="200.85197"
       y="228.7926" />
    <rect
       style="opacity:1;fill:none;stroke:#7CC2E6;stroke-width:3;stroke-linecap:round;stroke-linejoin:round;stroke-miterlimit:4;stroke-dasharray:none;stroke-opacity:1;paint-order:fill markers stroke"
       id="rect9540"
       width="12.367168"
       height="0.45804325"
       x="200.1649"
       y="251.69478" />
    <path
       style="fill:none;stroke:#7CC2E6;stroke-width:3;stroke-linecap:round;stroke-linejoin:round;stroke-opacity:1;stroke-miterlimit:4;stroke-dasharray:none"
       d="m 267.87507,168.92122 c 0,22.98928 0,22.98928 0,22.98928 z"
       id="path9781" />
    <path
       style="fill:none;stroke:#7CC2E6;stroke-width:3;stroke-linecap:butt;stroke-linejoin:round;stroke-opacity:1;stroke-miterlimit:4;stroke-dasharray:none"
       d="m 289.61493,191.9105 c 0,-39.2317 0,-39.2317 0,-39.2317 z"
       id="path9783" />
    <path
       style="fill:none;stroke:#7CC2E6;stroke-width:3;stroke-linecap:butt;stroke-linejoin:miter;stroke-opacity:1;stroke-miterlimit:4;stroke-dasharray:none"
       d="m 243.38649,191.66062 c -0.24988,-49.72681 -0.24988,-49.47693 -0.24988,-49.47693 z"
       id="path9785" />
    <path
       style="fill:none;stroke:#7CC2E6;stroke-width:3;stroke-linecap:butt;stroke-linejoin:miter;stroke-opacity:1;stroke-miterlimit:4;stroke-dasharray:none"
       d="m 218.39815,191.9105 c -0.49977,-21.24009 -0.49977,-21.24009 -0.49977,-21.24009 l -63.72028,-0.49977 64.22005,0.49977 z"
       id="path9787" />
    <path
       style="fill:none;stroke:#7CC2E6;stroke-width:3;stroke-linecap:butt;stroke-linejoin:round;stroke-opacity:1;stroke-miterlimit:4;stroke-dasharray:none"
       d="m 199.15712,217.89838 c -19.24103,0 -18.99114,0 -18.99114,0 z"
       id="path9789" />
    <path
       style="fill:none;stroke:#7CC2E6;stroke-width:3;stroke-linecap:butt;stroke-linejoin:round;stroke-opacity:1;stroke-miterlimit:4;stroke-dasharray:none"
       d="m 199.90677,237.63917 c -73.21585,0.49977 -72.96597,0.49977 -72.96597,0.49977 z"
       id="path9791" />
    <path
       style="fill:none;stroke:#7CC2E6;stroke-width:3;stroke-linecap:butt;stroke-linejoin:round;stroke-opacity:1;stroke-miterlimit:4;stroke-dasharray:none"
       d="m 199.65689,262.8774 c -62.97064,0.49977 -62.97064,0.49977 -62.97064,0.49977 z"
       id="path9793" />
    <path
       style="fill:none;stroke:#7CC2E6;stroke-width:3;stroke-linecap:round;stroke-linejoin:miter;stroke-opacity:1;stroke-miterlimit:4;stroke-dasharray:none"
       d="m 200.40654,288.86528 c -36.98276,0.24989 -36.73287,0.49977 -36.73287,0.49977 l -0.24989,56.97343 0.49977,-57.22331 z"
       id="path9795" />
    <path
       style="fill:none;stroke:#7CC2E6;stroke-width:3;stroke-linecap:butt;stroke-linejoin:round;stroke-opacity:1;stroke-miterlimit:4;stroke-dasharray:none"
       d="m 222.1464,306.10724 c 0.24988,23.23916 0.24988,23.23916 0.24988,23.23916 z"
       id="path9797" />
    <path
       style="fill:none;stroke:#7CC2E6;stroke-width:3;stroke-linecap:butt;stroke-linejoin:round;stroke-miterlimit:4;stroke-dasharray:none;stroke-opacity:1"
       d="m 245.13568,306.35713 0.24988,39.2317 z"
       id="path9799"
       sodipodi:nodetypes="ccc" />
    <path
       style="fill:none;stroke:#7CC2E6;stroke-width:3;stroke-linecap:round;stroke-linejoin:round;stroke-miterlimit:4;stroke-dasharray:none;stroke-opacity:1"
       d="m 267.87507,306.10724 c 0.49977,22.23963 -0.0801,22.23963 -0.0801,22.23963 z"
       id="path9801"
       sodipodi:nodetypes="ccc" />
    <path
       style="fill:none;stroke:#7CC2E6;stroke-width:3;stroke-linecap:butt;stroke-linejoin:round;stroke-opacity:1;stroke-miterlimit:4;stroke-dasharray:none"
       d="m 289.86482,306.10724 c 0.24988,41.73054 0.24988,41.73054 0.24988,41.73054 z"
       id="path9803" />
    <path
       style="fill:none;stroke:#7CC2E6;stroke-width:3;stroke-linecap:round;stroke-linejoin:round;stroke-miterlimit:4;stroke-dasharray:none;stroke-opacity:1"
       d="m 313.60375,291.11423 25.48811,0.24989 -0.036,29.23636 0.036,-29.48625 z"
       id="path9805"
       sodipodi:nodetypes="ccccc" />
    <path
       style="fill:none;stroke:#7CC2E6;stroke-width:3;stroke-linecap:butt;stroke-linejoin:round;stroke-miterlimit:4;stroke-dasharray:none;stroke-opacity:1"
       d="m 314.23707,261.3781 h 62.08742 z"
       id="path9807"
       sodipodi:nodetypes="ccc" />
    <path
       style="fill:none;stroke:#7CC2E6;stroke-width:3;stroke-linecap:round;stroke-linejoin:round;stroke-miterlimit:4;stroke-dasharray:none;stroke-opacity:1"
       d="m 314.76354,237.61247 25.57774,0.0267 z"
       id="path9809"
       sodipodi:nodetypes="ccc" />
    <path
       style="fill:none;stroke:#7CC2E6;stroke-width:3;stroke-linecap:butt;stroke-linejoin:round;stroke-opacity:1;stroke-miterlimit:4;stroke-dasharray:none"
       d="m 313.60375,214.64989 c 41.98042,-0.24988 41.98042,0 41.98042,0 l 0.24988,-23.23916 v 23.48905 z"
       id="path9811" />
    <path
       style="opacity:1;fill:none;stroke:#7CC2E6;stroke-width:3;stroke-linecap:round;stroke-linejoin:round;stroke-miterlimit:4;stroke-dasharray:none;stroke-opacity:1;paint-order:fill markers stroke"
       id="path10065"
       sodipodi:type="arc"
       sodipodi:cx="147.06723"
       sodipodi:cy="170.27615"
       sodipodi:rx="6.8342681"
       sodipodi:ry="6.5327291"
       sodipodi:start="3.2318087"
       sodipodi:end="3.2274279"
       sodipodi:open="true"
       sodipodi:arc-type="arc"
       d="m 140.26076,169.6876 a 6.8342681,6.5327291 0 0 1 7.41474,-5.91825 6.8342681,6.5327291 0 0 1 6.19954,7.08111 6.8342681,6.5327291 0 0 1 -7.40117,5.93375 6.8342681,6.5327291 0 0 1 -6.21575,-7.06811" />
    <path
       style="opacity:1;fill:#7CC2E6;stroke:#7CC2E6;stroke-width:3;stroke-linecap:round;stroke-linejoin:round;stroke-miterlimit:4;stroke-dasharray:none;stroke-opacity:1;paint-order:fill markers stroke"
       id="path10570"
       sodipodi:type="arc"
       sodipodi:cx="120.82202"
       sodipodi:cy="237.04028"
       sodipodi:rx="6.8342681"
       sodipodi:ry="6.5327291"
       sodipodi:start="3.2318087"
       sodipodi:end="3.2274279"
       sodipodi:open="true"
       sodipodi:arc-type="arc"
       d="m 114.01555,236.45173 a 6.8342681,6.5327291 0 0 1 7.41474,-5.91825 6.8342681,6.5327291 0 0 1 6.19954,7.08111 6.8342681,6.5327291 0 0 1 -7.40117,5.93375 6.8342681,6.5327291 0 0 1 -6.21575,-7.06811" />
    <path
       style="opacity:1;fill:#7CC2E6;stroke:#7CC2E6;stroke-width:3;stroke-linecap:round;stroke-linejoin:round;stroke-miterlimit:4;stroke-dasharray:none;stroke-opacity:1;paint-order:fill markers stroke"
       id="path10572"
       sodipodi:type="arc"
       sodipodi:cx="163.1731"
       sodipodi:cy="353.53024"
       sodipodi:rx="6.8342681"
       sodipodi:ry="6.5327291"
       sodipodi:start="3.2318087"
       sodipodi:end="3.2274279"
       sodipodi:open="true"
       sodipodi:arc-type="arc"
       d="m 156.36662,352.94169 a 6.8342681,6.5327291 0 0 1 7.41475,-5.91825 6.8342681,6.5327291 0 0 1 6.19953,7.08111 6.8342681,6.5327291 0 0 1 -7.40116,5.93375 6.8342681,6.5327291 0 0 1 -6.21575,-7.06811" />
    <path
       style="opacity:1;fill:none;stroke:#7CC2E6;stroke-width:3;stroke-linecap:round;stroke-linejoin:round;stroke-miterlimit:4;stroke-dasharray:none;stroke-opacity:1;paint-order:fill markers stroke"
       id="path10574"
       sodipodi:type="arc"
       sodipodi:cx="245.33226"
       sodipodi:cy="352.71149"
       sodipodi:rx="6.8342681"
       sodipodi:ry="6.5327291"
       sodipodi:start="3.2318087"
       sodipodi:end="3.2274279"
       sodipodi:open="true"
       sodipodi:arc-type="arc"
       d="m 238.52579,352.12293 a 6.8342681,6.5327291 0 0 1 7.41474,-5.91825 6.8342681,6.5327291 0 0 1 6.19954,7.08111 6.8342681,6.5327291 0 0 1 -7.40117,5.93376 6.8342681,6.5327291 0 0 1 -6.21575,-7.06811" />
    <path
       style="opacity:1;fill:none;stroke:#7CC2E6;stroke-width:3;stroke-linecap:round;stroke-linejoin:round;stroke-miterlimit:4;stroke-dasharray:none;stroke-opacity:1;paint-order:fill markers stroke"
       id="path10576"
       sodipodi:type="arc"
       sodipodi:cx="339.98343"
       sodipodi:cy="327.50439"
       sodipodi:rx="6.8342681"
       sodipodi:ry="6.5327291"
       sodipodi:start="3.2318087"
       sodipodi:end="3.2274279"
       sodipodi:open="true"
       sodipodi:arc-type="arc"
       d="m 333.17695,326.91584 a 6.8342681,6.5327291 0 0 1 7.41475,-5.91825 6.8342681,6.5327291 0 0 1 6.19954,7.08111 6.8342681,6.5327291 0 0 1 -7.40117,5.93376 6.8342681,6.5327291 0 0 1 -6.21575,-7.06812" />
    <path
       style="opacity:1;fill:#7CC2E6;stroke:#7CC2E6;stroke-width:3;stroke-linecap:round;stroke-linejoin:round;stroke-miterlimit:4;stroke-dasharray:none;stroke-opacity:1;paint-order:fill markers stroke"
       id="path10677"
       sodipodi:type="arc"
       sodipodi:cx="355.84399"
       sodipodi:cy="183.38013"
       sodipodi:rx="6.8342681"
       sodipodi:ry="6.5327291"
       sodipodi:start="3.2318087"
       sodipodi:end="3.2274279"
       sodipodi:open="true"
       sodipodi:arc-type="arc"
       d="m 349.03752,182.79157 a 6.8342681,6.5327291 0 0 1 7.41474,-5.91825 6.8342681,6.5327291 0 0 1 6.19954,7.08111 6.8342681,6.5327291 0 0 1 -7.40116,5.93376 6.8342681,6.5327291 0 0 1 -6.21575,-7.06811" />
    <path
       style="fill:none;stroke:#FCB820;stroke-width:6;stroke-linecap:butt;stroke-linejoin:round;stroke-opacity:1;stroke-miterlimit:4;stroke-dasharray:none"
       d="M 94.690265,167.25664 252.21239,62.831858 403.53982,169.02655 253.9823,281.41593 Z"
       id="path2755" />
    <path
       style="fill:none;stroke:#FCB820;stroke-width:6;stroke-linecap:round;stroke-linejoin:round;stroke-opacity:1;stroke-miterlimit:4;stroke-dasharray:none"
       d="M 94.690265,167.25664 C 253.9823,281.41593 253.9823,281.41593 253.9823,281.41593 V 438.0531 L 95.575221,331.85841 Z"
       id="path597" />
    <path
       style="fill:none;stroke:#FCB820;stroke-width:6;stroke-linecap:butt;stroke-linejoin:round;stroke-opacity:1;stroke-miterlimit:4;stroke-dasharray:none"
       d="m 403.53982,169.02655 0.88496,161.9469 L 253.9823,438.0531 V 281.41593 L 403.53982,169.02655"
       id="path2757" />
  </g>
</svg>
